<svg width="600" height="600" viewBox="0 0 600 600" fill="none" xmlns="http://www.w3.org/2000/svg">
<circle cx="299.5" cy="300.5" r="293.5" fill="#F3E6D8"/>
<path d="M464.004 187.97C454.499 178.469 443.214 170.932 430.793 165.789C418.372 160.647 405.058 158 391.613 158C378.168 158 364.854 160.647 352.433 165.789C340.012 170.932 328.726 178.469 319.221 187.97C309.716 197.471 299.495 221.153 299.495 221.153C299.495 221.153 298.968 207.153 279.769 187.97C260.569 168.787 234.529 158.01 207.377 158.01C180.225 158.01 154.185 168.787 134.986 187.97C115.786 207.153 105 233.171 105 260.3C105 287.429 115.786 313.447 134.986 332.63L154.712 352.34L299.495 497L444.278 352.34L464.004 332.63C473.514 323.133 481.057 311.857 486.204 299.447C491.351 287.036 494 273.734 494 260.3C494 246.866 491.351 233.564 486.204 221.153C481.057 208.743 473.514 197.467 464.004 187.97Z" fill="#60321F" stroke="#60321F" stroke-width="2" stroke-linecap="round" stroke-linejoin="round"/>
</svg>
